<svg xmlns="http://www.w3.org/2000/svg" xml:space="preserve" width="800" height="800" viewBox="0 0 480 480"><path d="M432 0H48C34.768 0 24 10.768 24 24v432c0 13.232 10.768 24 24 24h384c13.232 0 24-10.768 24-24V24c0-13.232-10.768-24-24-24m-88 56v384c0 13.232-10.768 24-24 24H48c-4.408 0-8-3.584-8-8V24c0-4.416 3.592-8 8-8h272c13.232 0 24 10.768 24 24zm96 400c0 4.416-3.592 8-8 8h-80.208c5.08-6.704 8.208-14.96 8.208-24v-48h24c4.416 0 8-3.576 8-8s-3.584-8-8-8h-24v-16h40c4.416 0 8-3.576 8-8s-3.584-8-8-8h-40v-16h24c4.416 0 8-3.576 8-8s-3.584-8-8-8h-24v-16h40c4.416 0 8-3.576 8-8s-3.584-8-8-8h-40v-32h32c13.232 0 24-10.768 24-24V72c0-13.232-10.768-24-24-24h-32v-8c0-9.04-3.128-17.296-8.208-24H432c4.408 0 8 3.584 8 8zm-80-224V64h32c4.408 0 8 3.584 8 8v152c0 4.416-3.592 8-8 8z"/><path d="M309.304 81.608c-1.712-1.504-3.968-2.256-6.272-1.944L302 79.8c-.656.08-1.328.2-2 .2-11.024 0-20-8.968-20-20 0-.696.12-1.392.208-2.056l.128-.952A8.002 8.002 0 0 0 272.4 48H111.6c-2.296 0-4.48.984-6 2.704a8.03 8.03 0 0 0-1.944 6.288l.128.952c.096.664.216 1.36.216 2.056 0 11.032-8.976 20-20 20-.672 0-1.344-.12-2-.2l-1.032-.136c-2.288-.328-4.56.44-6.272 1.944A8.03 8.03 0 0 0 72 87.6v304.8c0 2.288.984 4.472 2.696 5.992 1.712 1.504 4 2.288 6.272 1.944L82 400.2c.656-.08 1.328-.2 2-.2 11.024 0 20 8.968 20 20 0 .696-.12 1.392-.208 2.056l-.128.952A8.002 8.002 0 0 0 111.6 432h160.8c2.296 0 4.48-.984 6-2.704a8.03 8.03 0 0 0 1.944-6.288l-.128-.952c-.096-.664-.216-1.36-.216-2.056 0-11.032 8.976-20 20-20 .672 0 1.344.12 2 .2l1.032.136c2.296.336 4.56-.44 6.272-1.944A8.03 8.03 0 0 0 312 392.4V87.6a8.02 8.02 0 0 0-2.696-5.992M296 384.216c-16.664 1.848-29.928 15.12-31.776 31.784H119.776c-1.848-16.664-15.12-29.928-31.776-31.784V95.784c16.664-1.848 29.928-15.12 31.776-31.784h144.448c1.848 16.664 15.12 29.928 31.776 31.784z"/><path d="M256 288H120c-4.416 0-8 3.576-8 8s3.584 8 8 8h136c4.416 0 8-3.576 8-8s-3.584-8-8-8M120 336h40c4.416 0 8-3.576 8-8s-3.584-8-8-8h-40c-4.416 0-8 3.576-8 8s3.584 8 8 8M256 320h-64c-4.416 0-8 3.576-8 8s3.584 8 8 8h64c4.416 0 8-3.576 8-8s-3.584-8-8-8M256 352h-40c-4.416 0-8 3.576-8 8s3.584 8 8 8h40c4.416 0 8-3.576 8-8s-3.584-8-8-8M184 352h-64c-4.416 0-8 3.576-8 8s3.584 8 8 8h64c4.416 0 8-3.576 8-8s-3.584-8-8-8M128 160c4.416 0 8-3.576 8-8v-16c0-4.424-3.584-8-8-8s-8 3.576-8 8v16c0 4.424 3.584 8 8 8M192 216c26.472 0 48-21.528 48-48s-21.528-48-48-48-48 21.528-48 48 21.528 48 48 48m0-80c17.648 0 32 14.352 32 32s-14.352 32-32 32-32-14.352-32-32 14.352-32 32-32"/><path d="M256 168c-4.416 0-8 3.576-8 8 0 30.872-25.12 56-56 56s-56-25.128-56-56c0-4.424-3.584-8-8-8s-8 3.576-8 8c0 39.704 32.304 72 72 72s72-32.296 72-72c0-4.424-3.584-8-8-8M256 128c-4.416 0-8 3.576-8 8v16c0 4.424 3.584 8 8 8s8-3.576 8-8v-16c0-4.424-3.584-8-8-8"/></svg>